<!--?xml version="1.0" encoding="utf-8"?-->
<!-- Generator: Adobe Illustrator 22.1.0, SVG Export Plug-In . SVG Version: 6.00 Build 0)  -->
<svg version="1.1" id="_x30_" xmlns="http://www.w3.org/2000/svg" xmlns:xlink="http://www.w3.org/1999/xlink" x="0px" y="0px" viewBox="0 0 623.122 800" style="enable-background:new 0 0 623.122 800;" xml:space="preserve">
<style type="text/css">
	.st0{fill:#75BB2B;}
</style>
<g>
	<path class="st0" d="M621.543,276.268c-1.037-5.155-20.215-2.23-23.905,0.799c1.762-8.225-6.163-4.607-10.832-5.872
		c2.529-4.342,1.145-14.034,0.788-13.297c1.47-3.032,8.398-4.066,8.283-3.814c3.806-8.348,7.582-1.644,8.47-10.08
		c1.152-10.947-10.472-7.481-8.094,0.014c-2.295-0.306-3.986-3.624-6.257-1.091c-0.837-10.756-2.489-3.737-6.101-0.849
		c-1.276-3.935-9.417,1.17-10.939-1.267c1.579-1.529,13.654-7.4,12.432-11.231c-1.361-4.269-20.572-1.733-23.52-1.063
		c2.835-4.327,23.936-35.015,18.75-39.505c-1.664-1.44-30.209,5.146-36.076,4.539c-5.707-0.591-11.927-5.044-19.349-5.12
		c-14.633-0.149-47.026,8.325-30.134-21.705c10.447,8.572,35.531-0.43,27.103-13.93c18.031,0,19.565-4.107,21.314-26.842
		c1.404-18.249-4.47-35.165-19.676-44.518c-28.385-17.461-31.045,10.404-52.462,21.793c-14.509,7.716-51.13-2.323-65.93-10.639
		c-21.396-12.023-16.95-26.467-23.534-47.536c8.245,5.82-0.873-33.884-0.873-1.272c-4.241-4.057-2.702-0.038-4.607,0.942
		c0.909,0.313-6.149-3.113-5.858-2.418c4.383,1.559,13.541-31.289,12.685-32.956c-9.759-19.008-16.269,3.982-29.587,11.507
		c-1.906-12.8-19.59-14.925-28.626-14.767c-4.71,0.082-18.461,5.403-21.556,6.88c-10.181,4.858-13.844,5.512-25.754,8.411
		c-3.299,0.803-18.744,7.96-18.634,7.849c-7.969,8.005-1.926,20.234-4.049,25.603c-3.323,8.406-4.556,12.645-11.445,18.389
		c-3.835,3.198-6.489,7.502-11.924,9.245c-12.387,3.974-1.848-8.218-12.501-8.218c-13.326,0,6.433,14.459,6.244,14.335
		c9.25,6.025,6.975,0.809,14.407-2.498c2.244,9.423-1.146,17.828-15.483,14.96c4.836-6.917-6.398-18.19-7.984-3.657
		c1.472,3.018-18.123-12.053-9.402-10.912c-12.963-1.695-4.763-1.358-17.249,5.414c2.055-1.114-15.756,13.497-14.981,11.413
		c-0.85,2.285,2.358,20.171,7.661,12.718c0.73,0.181,1.287,0.677,1.672,1.487c-2.018,9.801-31.237,5.759-23.914,23.333
		c-4.908,1.146-9.592,0.78-13.476-1.994c3.402-1.967,0.97-8.025-2.848-7.447c2.531-1.898,5.363-15.996,2.713-15.996
		c-16.198,0-33.262-9.651-32.399,17.318c-3.251-4.845-47.253,27.787-7.838,18.199c-9.801,4.737,0.477,10.031,0.477,5.613
		c1.048,0.846,2.688,5.862,1.275,7.243c-0.109-1.191-25.689,0.515-25.935,0.909c-0.2-1.791,5.675-17.23,0.879-17.23
		c-5.362,0-5.56,13.795-11.441,14.855c-4.25,0.766-11.768-5.397-15.25-2.412c7.7-16.271-25.058,7.235-28.392,7.761
		c2.1-4.708,0.438-25.291-4.266-24.12c-5.978,1.487-13.23,34.771,1.677,26.852c-0.576,2.906-1.502,10.375,0.058,12.807
		c-4.996,0-10.119,9.896-6.547,13.831c-7.135,0-7.928,9.899-4.307,14.178c5.39-0.415-21.125-0.63-10.319,4.924
		c11.762,6.046,17.283,1.452,26.594-7.293c9.82-9.224,15.734-34.508,23.595-38.001c-1.857,5.663,1.816,12.343,3.855,17.841
		c-15.79-2.786-2.195,21.606-1.385,23.019c11.036,19.268,1.198-4.322,16.32,1.305c-5.364,9.518-1.118,8.501,6.247,13.484
		c-1.251,3.151-1.335,19.964-5.946,25.498c-0.111-0.721-0.449-1.253-1.014-1.598c3.771-1.616-15.825-5.153-20.554,6.522
		c-8.408,20.762,12.782-3.511,19.049,1.925c4.443,3.854-5.129,13.881-5.455,18.56c0.036-0.512-7.41,0.1-2.998,9.207
		c3.016,6.225,7.496-1.26,9.558,1.732c7.69,11.158,12.513,28.613,27.117,26.395c-2.641,6.353,11.501,14.414,10.942,20.336
		c-1.642,17.398-8.963-3.307-12.468,5.189c-1.615,3.869,8.657,12.139,12.036,11.688c-0.444,11.886-30.676,28.445-8.81,26.015
		c-11.176,14.619,18.299,1.23,4.965-0.876c31.153-7.199,33.083-52.872,68.71-56.283c42.056-4.027-7.308,28.753,14.049,47.299
		c7.713,6.698,4.098,5.566,17.009,1.746c2.758-0.816,22.888-13.767,25.264-16.464c26.789-30.432-20.585-81.711-34.102-49.734
		c-30.374-4.228,6.598-16.87,8.13-26.93c1.655-10.87-15.289-30.659-20.204-40.954c3.775,1.421,23.276-18.426,22.826-22.226
		c-2.421,0.211,22.352,14.199,20.592,12.708c4.526,3.836,5.198,3.708,9.645,8.978c2.482,2.942,5.451,11.198,7.398,17.604
		c1.405,4.627-5.648,7.498-4.974,11.683c0.344,2.14,6.14,1.934,7.129,5.835c4.271,16.853,7.081,14.487,14.841,22.74
		c3.027,3.219,18.578,13.401,19.1,14.524c3.893,8.382-0.174,24.803,4.861,21.446c2.801,17.783-53.961,37.615-42.967,48.45
		c-8.044,7.216-1.948,10.32,2.897,11.385c-1.437,0.784-2.643,2.664-3.567,3.993c-5.006-13.349-26.138,2.85-28.695,9.491
		c2.908-1.663-11.934,3.785-12.525,4.021c2.014-15.443-4.169-23.883-19.739-23.85c-6.56,0.013-6.592,7.572-17.458,9.298
		c-1.945,0-2.236-14.13-10.012-3.008c-1.594,2.28,6.397,5.95,5.245,8.72c-1.401,3.372-6.169,12.8-7.214,16.783
		c-1.356,5.169-11.852,37.45,0.124,37.45c-10.05,8.247-10.931,17.627,0.669,18.271c1.471,3.923-3.356,12.349,1.278,17.993
		c4.893,5.96,15.499,2.883,7.916-7.081c5.64-0.024,11.212,0.821,10.975-7.871c0.547,0.046,1.09-0.005,1.628-0.154
		c-15.71,18.397,19.052,35.052,22.115,43.02c1.703,4.429-7.389,8.442-6.549,12.586c-0.238-1.176,6.611,9.406,6.701,13.668
		c0.347,16.427-5.214,21.538-6.335,35.244c-2.088,25.532,26.305,26.352,33.01,54.302c4.729,19.714-1.982,48.468-23.436,54.15
		c-0.31,0.082-30.911-14.903-25.613,0.429c-0.696-2.022,20.038,18.987,14.36,18.987c1.496,0,2.848-3.619,2.578-4.798
		c-0.47-0.098,5.659,4.395,5.208,3.553c1.065,2.129-8.297,1.875-8.323,5.525c-0.033,3.491,9.286,5.436,10.901,4.593
		c0.123,2.698-6.745,13.414,0.617,17.533c6.249,3.497,26.396-0.587,33.099-0.154c18.596,1.203,19.072,4.006,31.555,11.331
		c6.446,3.783,0.563,4.57,11.207,7.515c8.205,2.27,6.213,4.285,12.194,1.672c31.068-13.576-0.666-38.717-9.27-56.746
		c-6.258-13.113-11.465-50.558,8.772-61.698c-7.855,12.655,9.54,25.881,21.049,18.772c0.717,2.141-5.56,6.808-3.437,9.557
		c1.584,2.049,13.355,18.794,15.25,22.501c8.633,16.89,6.772,30.549,3.211,47.844c-3.808,18.493-10.773,22.018-19.033,36.415
		c-1.121,1.953-11.48,26.261-5.64,29.216c2.15,1.088,48.911-26.528,57.161-31.058c10.505-5.768,13.822-13.824,21.316-20.226
		c2.932-2.506,29.608-16.504,29.608-25.319c0-6.318-9.989-0.893-11.909-0.893c18.254-14.965-8.767-16.79-12.711-27.475
		c5.546-14.913,18.403-21.784,29.777-19.764c6.336,4.281,23.544,27.78,31.576,20.65c0.487,2.453,9.348,14.291,13.407,8.042
		c-1.324,2.035,2.65-17.721,2.361-16.649c2.802-10.389,1.758-13.577,4.453-23.34c3.268-11.84,9.169-17.079,13.685-27.348
		c3.781-8.598,5.626-22.234,5.764-32.432c0.063-4.67,4.408-9.089,4.382-12.889c-0.03-4.445-8.025-6.668-8.248-11.969
		c-1.512-35.961,17.712-84.464,29.979-118.043c3.795-10.387,7.781-21.318,12.913-30.875c2.516-4.684,10.225-7.568,11.625-11.246
		c2.215-5.82-10.437-4.881-6.654-12.762c18.826,19.034,8.453-23.568,5.047-15.103c2.56-6.364,20.282-36.461,24.204-37.891
		c-3.208,10.364,13.43,5.826,9.948-0.165c-0.288-0.497-6.345-2.427-6.58-2.352c1.136-1.562,0.843-1.37,2.405-2.451
		c2.468,8.685,16.172-15.518,15.084-21.191c0.553,0.119,1.097,0.064,1.631-0.165c2.093,7.61,11.622-1.09,6.125-3.498
		c9.413,0.471,29.362-18.606,13.209-18.871C602.333,293.007,622.295,280.014,621.543,276.268z M257.428,371.12 M254.346,387.374
		 M223.084,441.774 M203.805,423.09 M177.195,468.054c-1.002-6.128,2.766-7.975,6.511-5.161c4.721,0,26.999-32.956,29.37-38.883
		c3.312,4.033,12.516,4.698,16.197,1.763c0.159,1.31,0.473,2.586,0.942,3.828c-0.484-0.05-1.576,0.29-1.925,0.639
		c0.693-11.083-17.679,20.049-6.753,15.269c-0.718,0.725-0.092,1.096,1.879,1.113c-1.107,1.408-6.558-5.575-5.495,3.007
		c0.555,4.573,32.693-5.886,15.679-14.393c-0.222,0.217,12.49-8.501,10.942-4.804c-4.018,9.595,5.806-5.778,5.297-4.905
		c-1.449,2.489-1.989-11.79-1.918-12.203c2.974-17.17,23.321-58.936,43.697-43.741c-4.748,3.533-18.269,14.095-19.631,19.108
		c-1.622,5.967,5.967,15.21,5.465,17.965c-2.267,12.446-15.495,30.97-21.069,43.217c-5.437,11.947-15.953,15.305-22.679,26.382
		c-2.35,3.871-1.269,15.054-5.761,18.822c-11.465,9.614-20.549-5.809-34.658,4.935c-0.074-0.42,14.019-18.804,2.732-16.26
		c3.609-4.512,8.075-12.113,2.481-17.119c5.646,2.454,19.181-8.669,16.2-15.269c-6.227-13.779-23.216,8.937-16.883,14.795
		c-1.26-0.771-2.443-0.602-3.548,0.507c0.736-1.418,6.207-8.466,0.746-8.466C188.73,458.199,179.834,484.149,177.195,468.054z
		 M193.946,469.728 M294.796,631.455c-2.142-1.146-0.405-4.358-4.809-0.931c2.391-7.698-0.053-20.005,8.545-24.44
		c6.103-3.148,27.036,2.537,29.539,5.871c5.445,7.254,4.444,18.946-2.193,25.909C307.743,656.887,313.008,614.755,294.796,631.455z
		 M216.62,99.498c0-0.593,3.249,3.929,3.481,5.569c-1.977-0.184-4.061-0.038-6.034-0.143
		C216.066,104.299,216.918,102.49,216.62,99.498z M136.464,295.69c-13.9,0-20.238,10.454-25.206-6.323
		c-0.51-1.723,5.373-43.643-12.892-33.27c1.476-18.455,16.963,1.239,15.241,1.239c8.826,0,8.566-16.185,20.879-0.545
		c8.474,10.764-1.46,14.617,1.297,26.23c-17.546-3.51,1.722,12.867,3.407,6.213c3.311,4.353,4.849,9.699,9.001,13.159
		C146.779,300.981,138.196,295.81,136.464,295.69z M115.69,341.463 M90.658,240.25c0.086,0.328-8.987-3.027-8.829-4.919
		c2.281,0.344,8.803,1.235,8.058-3.085c1.024,1.191,2.162,1.512,3.418,0.964c0.057,0.499,0.189,0.98,0.396,1.443
		C90.357,234.233,89.785,237.051,90.658,240.25z M114.971,176.597 M114.756,167.938c6.124,0.954-3.075,2.301-2.341,5.833
		C110.469,169.768,113.014,173.907,114.756,167.938z M121.383,156.706c-0.119,3.423-1.606,0.212-4.332,1.014
		C117.514,155.403,119.962,157.081,121.383,156.706z M95.654,261.286 M107.868,170.907 M106.646,150.824 M581.923,321.502" style="fill: rgb(117, 187, 43); opacity: 1;"></path>
</g>
</svg>
